<mxfile host="app.diagrams.net" modified="2024-03-09T15:54:34.028Z" agent="Mozilla/5.0 (Windows NT 10.0; Win64; x64) AppleWebKit/537.36 (KHTML, like Gecko) Chrome/122.0.0.0 Safari/537.36" etag="yesP0SMuncvO_IQy3M3t" version="24.0.2" type="github">
  <diagram name="第 1 页" id="kgZkTC32iMSSahGTPF5x">
    <mxGraphModel dx="2362" dy="1645" grid="0" gridSize="10" guides="1" tooltips="1" connect="1" arrows="1" fold="1" page="0" pageScale="1" pageWidth="827" pageHeight="1169" math="0" shadow="0">
      <root>
        <mxCell id="0" />
        <mxCell id="1" parent="0" />
        <mxCell id="hcVwcxI4KGfbfcKdvUNQ-1" value="" style="rounded=0;whiteSpace=wrap;html=1;fillColor=#f5f5f5;fontColor=#333333;strokeColor=#666666;" vertex="1" parent="1">
          <mxGeometry x="-720" y="-560" width="690" height="780" as="geometry" />
        </mxCell>
        <mxCell id="hcVwcxI4KGfbfcKdvUNQ-2" style="edgeStyle=orthogonalEdgeStyle;rounded=0;orthogonalLoop=1;jettySize=auto;html=1;fontSize=12;startSize=8;endSize=8;exitX=1;exitY=0.5;exitDx=0;exitDy=0;entryX=0;entryY=0.5;entryDx=0;entryDy=0;" edge="1" parent="1" source="hcVwcxI4KGfbfcKdvUNQ-6" target="hcVwcxI4KGfbfcKdvUNQ-17">
          <mxGeometry relative="1" as="geometry">
            <mxPoint x="-247.99999999999977" y="-568" as="targetPoint" />
          </mxGeometry>
        </mxCell>
        <mxCell id="hcVwcxI4KGfbfcKdvUNQ-3" value="yes" style="edgeLabel;html=1;align=center;verticalAlign=middle;resizable=0;points=[];fontSize=12;" vertex="1" connectable="0" parent="hcVwcxI4KGfbfcKdvUNQ-2">
          <mxGeometry x="-0.0396" y="2" relative="1" as="geometry">
            <mxPoint as="offset" />
          </mxGeometry>
        </mxCell>
        <mxCell id="hcVwcxI4KGfbfcKdvUNQ-4" style="edgeStyle=none;curved=1;rounded=0;orthogonalLoop=1;jettySize=auto;html=1;entryX=0.5;entryY=0;entryDx=0;entryDy=0;fontSize=12;startSize=8;endSize=8;" edge="1" parent="1" source="hcVwcxI4KGfbfcKdvUNQ-6" target="hcVwcxI4KGfbfcKdvUNQ-10">
          <mxGeometry relative="1" as="geometry" />
        </mxCell>
        <mxCell id="hcVwcxI4KGfbfcKdvUNQ-5" value="no" style="edgeLabel;html=1;align=center;verticalAlign=middle;resizable=0;points=[];fontSize=12;" vertex="1" connectable="0" parent="hcVwcxI4KGfbfcKdvUNQ-4">
          <mxGeometry x="-0.0687" y="-3" relative="1" as="geometry">
            <mxPoint as="offset" />
          </mxGeometry>
        </mxCell>
        <mxCell id="hcVwcxI4KGfbfcKdvUNQ-6" value="状态为大于等于 STOP&lt;span style=&quot;background-color: initial; font-size: 12px;&quot;&gt;&amp;nbsp;||&amp;nbsp;&lt;/span&gt;&lt;div style=&quot;font-size: 12px;&quot;&gt;&lt;span style=&quot;background-color: initial; font-size: 12px;&quot;&gt;(状态为 SHUTDOWN&amp;nbsp;&lt;/span&gt;&lt;div style=&quot;font-size: 12px;&quot;&gt;&lt;div style=&quot;font-size: 12px;&quot;&gt;&amp;amp;&amp;amp; 任务队列非空)&lt;/div&gt;&lt;/div&gt;&lt;/div&gt;" style="rhombus;whiteSpace=wrap;html=1;fillColor=#fff2cc;strokeColor=#d6b656;fontSize=12;" vertex="1" parent="1">
          <mxGeometry x="-638" y="-518" width="291" height="106" as="geometry" />
        </mxCell>
        <mxCell id="hcVwcxI4KGfbfcKdvUNQ-7" value="" style="edgeStyle=none;curved=1;rounded=0;orthogonalLoop=1;jettySize=auto;html=1;fontSize=12;startSize=8;endSize=8;" edge="1" parent="1" source="hcVwcxI4KGfbfcKdvUNQ-10" target="hcVwcxI4KGfbfcKdvUNQ-15">
          <mxGeometry relative="1" as="geometry" />
        </mxCell>
        <mxCell id="hcVwcxI4KGfbfcKdvUNQ-8" value="yes" style="edgeLabel;html=1;align=center;verticalAlign=middle;resizable=0;points=[];fontSize=12;" vertex="1" connectable="0" parent="hcVwcxI4KGfbfcKdvUNQ-7">
          <mxGeometry x="-0.0114" y="-3" relative="1" as="geometry">
            <mxPoint as="offset" />
          </mxGeometry>
        </mxCell>
        <mxCell id="hcVwcxI4KGfbfcKdvUNQ-9" style="edgeStyle=orthogonalEdgeStyle;rounded=0;orthogonalLoop=1;jettySize=auto;html=1;" edge="1" parent="1" source="hcVwcxI4KGfbfcKdvUNQ-10" target="hcVwcxI4KGfbfcKdvUNQ-26">
          <mxGeometry relative="1" as="geometry" />
        </mxCell>
        <mxCell id="hcVwcxI4KGfbfcKdvUNQ-10" value="&lt;div&gt;线程可以超时回收 &amp;amp;&amp;amp; 已经超时 &amp;amp;&amp;amp;&lt;/div&gt;&lt;div&gt;&lt;span style=&quot;background-color: initial;&quot;&gt;当前线程数不会让&lt;/span&gt;&lt;/div&gt;&lt;div&gt;&lt;span style=&quot;background-color: initial;&quot;&gt;任务队列中的任务饥饿&lt;/span&gt;&lt;br&gt;&lt;/div&gt;" style="rhombus;whiteSpace=wrap;html=1;fillColor=#fff2cc;strokeColor=#d6b656;" vertex="1" parent="1">
          <mxGeometry x="-621.5" y="-337" width="258" height="133" as="geometry" />
        </mxCell>
        <mxCell id="hcVwcxI4KGfbfcKdvUNQ-11" style="edgeStyle=orthogonalEdgeStyle;rounded=0;orthogonalLoop=1;jettySize=auto;html=1;entryX=0;entryY=0.5;entryDx=0;entryDy=0;fontSize=12;startSize=8;endSize=8;" edge="1" parent="1" source="hcVwcxI4KGfbfcKdvUNQ-15" target="hcVwcxI4KGfbfcKdvUNQ-18">
          <mxGeometry relative="1" as="geometry" />
        </mxCell>
        <mxCell id="hcVwcxI4KGfbfcKdvUNQ-12" value="成功" style="edgeLabel;html=1;align=center;verticalAlign=middle;resizable=0;points=[];fontSize=12;" vertex="1" connectable="0" parent="hcVwcxI4KGfbfcKdvUNQ-11">
          <mxGeometry x="-0.6774" relative="1" as="geometry">
            <mxPoint as="offset" />
          </mxGeometry>
        </mxCell>
        <mxCell id="hcVwcxI4KGfbfcKdvUNQ-13" style="edgeStyle=orthogonalEdgeStyle;rounded=0;orthogonalLoop=1;jettySize=auto;html=1;entryX=1;entryY=1;entryDx=0;entryDy=0;" edge="1" parent="1" source="hcVwcxI4KGfbfcKdvUNQ-15" target="hcVwcxI4KGfbfcKdvUNQ-6">
          <mxGeometry relative="1" as="geometry">
            <Array as="points">
              <mxPoint x="-185" y="-370" />
              <mxPoint x="-420" y="-370" />
            </Array>
          </mxGeometry>
        </mxCell>
        <mxCell id="hcVwcxI4KGfbfcKdvUNQ-14" value="失败" style="edgeLabel;html=1;align=center;verticalAlign=middle;resizable=0;points=[];" vertex="1" connectable="0" parent="hcVwcxI4KGfbfcKdvUNQ-13">
          <mxGeometry x="-0.0295" relative="1" as="geometry">
            <mxPoint as="offset" />
          </mxGeometry>
        </mxCell>
        <mxCell id="hcVwcxI4KGfbfcKdvUNQ-15" value="CAS 扣减线程数" style="whiteSpace=wrap;html=1;fillColor=#e1d5e7;strokeColor=#9673a6;" vertex="1" parent="1">
          <mxGeometry x="-245" y="-300.5" width="120" height="60" as="geometry" />
        </mxCell>
        <mxCell id="hcVwcxI4KGfbfcKdvUNQ-16" style="edgeStyle=orthogonalEdgeStyle;rounded=0;orthogonalLoop=1;jettySize=auto;html=1;entryX=0;entryY=0.5;entryDx=0;entryDy=0;fontSize=12;startSize=8;endSize=8;" edge="1" parent="1" source="hcVwcxI4KGfbfcKdvUNQ-17" target="hcVwcxI4KGfbfcKdvUNQ-18">
          <mxGeometry relative="1" as="geometry">
            <Array as="points">
              <mxPoint x="-66" y="-465" />
              <mxPoint x="-66" y="-360" />
            </Array>
          </mxGeometry>
        </mxCell>
        <mxCell id="hcVwcxI4KGfbfcKdvUNQ-17" value="扣减线程数" style="rounded=1;whiteSpace=wrap;html=1;fillColor=#f8cecc;strokeColor=#b85450;" vertex="1" parent="1">
          <mxGeometry x="-260" y="-495" width="120" height="60" as="geometry" />
        </mxCell>
        <mxCell id="hcVwcxI4KGfbfcKdvUNQ-18" value="return&lt;div&gt;null&lt;/div&gt;" style="ellipse;whiteSpace=wrap;html=1;fillColor=#f5f5f5;fontColor=#333333;strokeColor=#666666;" vertex="1" parent="1">
          <mxGeometry x="-9" y="-381" width="57" height="42" as="geometry" />
        </mxCell>
        <mxCell id="hcVwcxI4KGfbfcKdvUNQ-19" value="" style="group" vertex="1" connectable="0" parent="1">
          <mxGeometry x="-480" y="10" width="280" height="60" as="geometry" />
        </mxCell>
        <mxCell id="hcVwcxI4KGfbfcKdvUNQ-20" value="" style="rounded=0;whiteSpace=wrap;html=1;" vertex="1" parent="hcVwcxI4KGfbfcKdvUNQ-19">
          <mxGeometry width="280" height="60" as="geometry" />
        </mxCell>
        <mxCell id="hcVwcxI4KGfbfcKdvUNQ-21" value="任务" style="rounded=1;whiteSpace=wrap;html=1;sketch=1;curveFitting=1;jiggle=2;fillColor=#d5e8d4;strokeColor=#82b366;" vertex="1" parent="hcVwcxI4KGfbfcKdvUNQ-19">
          <mxGeometry x="37" y="16" width="50" height="27" as="geometry" />
        </mxCell>
        <mxCell id="hcVwcxI4KGfbfcKdvUNQ-22" value="任务" style="rounded=1;whiteSpace=wrap;html=1;sketch=1;curveFitting=1;jiggle=2;fillColor=#d5e8d4;strokeColor=#82b366;" vertex="1" parent="hcVwcxI4KGfbfcKdvUNQ-19">
          <mxGeometry x="114" y="16.5" width="56" height="27" as="geometry" />
        </mxCell>
        <mxCell id="hcVwcxI4KGfbfcKdvUNQ-23" value="任务" style="rounded=1;whiteSpace=wrap;html=1;sketch=1;curveFitting=1;jiggle=2;fillColor=#d5e8d4;strokeColor=#82b366;" vertex="1" parent="hcVwcxI4KGfbfcKdvUNQ-19">
          <mxGeometry x="195" y="16.5" width="50" height="27" as="geometry" />
        </mxCell>
        <mxCell id="hcVwcxI4KGfbfcKdvUNQ-24" style="edgeStyle=orthogonalEdgeStyle;rounded=0;orthogonalLoop=1;jettySize=auto;html=1;entryX=1;entryY=0.5;entryDx=0;entryDy=0;exitX=1;exitY=0.5;exitDx=0;exitDy=0;" edge="1" parent="1" source="hcVwcxI4KGfbfcKdvUNQ-26" target="hcVwcxI4KGfbfcKdvUNQ-20">
          <mxGeometry relative="1" as="geometry" />
        </mxCell>
        <mxCell id="hcVwcxI4KGfbfcKdvUNQ-25" value="false" style="edgeLabel;html=1;align=center;verticalAlign=middle;resizable=0;points=[];" vertex="1" connectable="0" parent="hcVwcxI4KGfbfcKdvUNQ-24">
          <mxGeometry x="-0.0541" y="1" relative="1" as="geometry">
            <mxPoint as="offset" />
          </mxGeometry>
        </mxCell>
        <mxCell id="hcVwcxI4KGfbfcKdvUNQ-26" value="线程可以超时回收" style="rhombus;whiteSpace=wrap;html=1;fillColor=#fff2cc;strokeColor=#d6b656;" vertex="1" parent="1">
          <mxGeometry x="-472.5" y="-160" width="180" height="80" as="geometry" />
        </mxCell>
        <mxCell id="hcVwcxI4KGfbfcKdvUNQ-27" value="" style="endArrow=classic;html=1;rounded=0;exitX=0;exitY=0.5;exitDx=0;exitDy=0;entryX=0;entryY=0.5;entryDx=0;entryDy=0;edgeStyle=orthogonalEdgeStyle;" edge="1" parent="1" source="hcVwcxI4KGfbfcKdvUNQ-26" target="hcVwcxI4KGfbfcKdvUNQ-20">
          <mxGeometry width="50" height="50" relative="1" as="geometry">
            <mxPoint x="-800" as="sourcePoint" />
            <mxPoint x="-630" y="-100" as="targetPoint" />
            <Array as="points">
              <mxPoint x="-530" y="-120" />
              <mxPoint x="-530" y="40" />
            </Array>
          </mxGeometry>
        </mxCell>
        <mxCell id="hcVwcxI4KGfbfcKdvUNQ-28" value="yes" style="edgeLabel;html=1;align=center;verticalAlign=middle;resizable=0;points=[];" vertex="1" connectable="0" parent="hcVwcxI4KGfbfcKdvUNQ-27">
          <mxGeometry x="-0.3503" y="1" relative="1" as="geometry">
            <mxPoint as="offset" />
          </mxGeometry>
        </mxCell>
        <mxCell id="hcVwcxI4KGfbfcKdvUNQ-29" value="&lt;div style=&quot;&quot;&gt;&lt;font style=&quot;font-family: &amp;quot;JetBrains Mono&amp;quot;, monospace; font-size: 9.8pt; white-space-collapse: preserve;&quot; color=&quot;#ff173e&quot;&gt;workQueue&lt;/font&gt;&lt;font style=&quot;font-family: &amp;quot;JetBrains Mono&amp;quot;, monospace; font-size: 9.8pt; white-space-collapse: preserve;&quot; color=&quot;#a9b7c6&quot;&gt;.&lt;/font&gt;&lt;font style=&quot;font-family: &amp;quot;JetBrains Mono&amp;quot;, monospace; font-size: 9.8pt; white-space-collapse: preserve;&quot; color=&quot;#0000cc&quot;&gt;poll&lt;/font&gt;&lt;/div&gt;&lt;div style=&quot;&quot;&gt;&lt;font style=&quot;font-family: &amp;quot;JetBrains Mono&amp;quot;, monospace; font-size: 9.8pt; white-space-collapse: preserve;&quot; color=&quot;#0000cc&quot;&gt;(&lt;/font&gt;&lt;font face=&quot;JetBrains Mono, monospace&quot; color=&quot;#0000cc&quot;&gt;&lt;span style=&quot;font-size: 13.0667px; white-space-collapse: preserve;&quot;&gt;keepAliveTime&lt;/span&gt;&lt;/font&gt;&lt;span style=&quot;font-family: &amp;quot;JetBrains Mono&amp;quot;, monospace; font-size: 9.8pt; white-space-collapse: preserve; color: rgb(0, 0, 204);&quot;&gt;)&lt;/span&gt;&lt;/div&gt;" style="edgeLabel;html=1;align=center;verticalAlign=middle;resizable=0;points=[];labelBackgroundColor=#FFFFFF;fontStyle=1" vertex="1" connectable="0" parent="hcVwcxI4KGfbfcKdvUNQ-27">
          <mxGeometry x="-0.0662" y="-2" relative="1" as="geometry">
            <mxPoint as="offset" />
          </mxGeometry>
        </mxCell>
        <mxCell id="hcVwcxI4KGfbfcKdvUNQ-30" value="&lt;div style=&quot;font-family: &amp;quot;JetBrains Mono&amp;quot;, monospace; font-size: 9.8pt; white-space-collapse: preserve;&quot;&gt;&lt;font color=&quot;#ff173e&quot;&gt;workQueue&lt;/font&gt;&lt;font color=&quot;#a9b7c6&quot;&gt;.&lt;/font&gt;&lt;font color=&quot;#0000cc&quot;&gt;take&lt;/font&gt;&lt;/div&gt;" style="edgeLabel;html=1;align=center;verticalAlign=middle;resizable=0;points=[];labelBackgroundColor=#FFFFFF;fontStyle=1" vertex="1" connectable="0" parent="1">
          <mxGeometry x="-180" y="-50" as="geometry" />
        </mxCell>
        <mxCell id="hcVwcxI4KGfbfcKdvUNQ-31" style="edgeStyle=orthogonalEdgeStyle;rounded=0;orthogonalLoop=1;jettySize=auto;html=1;" edge="1" parent="1" source="hcVwcxI4KGfbfcKdvUNQ-35" target="hcVwcxI4KGfbfcKdvUNQ-36">
          <mxGeometry relative="1" as="geometry">
            <mxPoint x="-409.4999999999998" y="247.5" as="targetPoint" />
          </mxGeometry>
        </mxCell>
        <mxCell id="hcVwcxI4KGfbfcKdvUNQ-32" value="yes" style="edgeLabel;html=1;align=center;verticalAlign=middle;resizable=0;points=[];" vertex="1" connectable="0" parent="hcVwcxI4KGfbfcKdvUNQ-31">
          <mxGeometry x="-0.4172" y="1" relative="1" as="geometry">
            <mxPoint as="offset" />
          </mxGeometry>
        </mxCell>
        <mxCell id="hcVwcxI4KGfbfcKdvUNQ-33" style="edgeStyle=orthogonalEdgeStyle;rounded=0;orthogonalLoop=1;jettySize=auto;html=1;" edge="1" parent="1" source="hcVwcxI4KGfbfcKdvUNQ-35" target="hcVwcxI4KGfbfcKdvUNQ-39">
          <mxGeometry relative="1" as="geometry" />
        </mxCell>
        <mxCell id="hcVwcxI4KGfbfcKdvUNQ-34" value="false" style="edgeLabel;html=1;align=center;verticalAlign=middle;resizable=0;points=[];" vertex="1" connectable="0" parent="hcVwcxI4KGfbfcKdvUNQ-33">
          <mxGeometry x="-0.19" y="2" relative="1" as="geometry">
            <mxPoint as="offset" />
          </mxGeometry>
        </mxCell>
        <mxCell id="hcVwcxI4KGfbfcKdvUNQ-35" value="成功到获取任务" style="rhombus;whiteSpace=wrap;html=1;fillColor=#d5e8d4;strokeColor=#82b366;" vertex="1" parent="1">
          <mxGeometry x="-487" y="100" width="155" height="80" as="geometry" />
        </mxCell>
        <mxCell id="hcVwcxI4KGfbfcKdvUNQ-36" value="return&lt;div&gt;task&lt;/div&gt;" style="ellipse;whiteSpace=wrap;html=1;fillColor=#f5f5f5;fontColor=#333333;strokeColor=#666666;" vertex="1" parent="1">
          <mxGeometry x="-438" y="251.5" width="57" height="42" as="geometry" />
        </mxCell>
        <mxCell id="hcVwcxI4KGfbfcKdvUNQ-37" value="" style="endArrow=classic;html=1;rounded=0;exitX=0.25;exitY=1;exitDx=0;exitDy=0;entryX=0.5;entryY=0;entryDx=0;entryDy=0;" edge="1" parent="1" source="hcVwcxI4KGfbfcKdvUNQ-20" target="hcVwcxI4KGfbfcKdvUNQ-35">
          <mxGeometry width="50" height="50" relative="1" as="geometry">
            <mxPoint x="-600" y="310" as="sourcePoint" />
            <mxPoint x="-550" y="260" as="targetPoint" />
          </mxGeometry>
        </mxCell>
        <mxCell id="hcVwcxI4KGfbfcKdvUNQ-38" style="edgeStyle=orthogonalEdgeStyle;rounded=0;orthogonalLoop=1;jettySize=auto;html=1;entryX=0;entryY=0.5;entryDx=0;entryDy=0;" edge="1" parent="1" source="hcVwcxI4KGfbfcKdvUNQ-39" target="hcVwcxI4KGfbfcKdvUNQ-6">
          <mxGeometry relative="1" as="geometry">
            <Array as="points">
              <mxPoint x="-658" y="-465" />
            </Array>
          </mxGeometry>
        </mxCell>
        <mxCell id="hcVwcxI4KGfbfcKdvUNQ-39" value="timedOut=true&lt;div&gt;poll 超时返回&lt;/div&gt;" style="whiteSpace=wrap;html=1;fillColor=#f8cecc;strokeColor=#b85450;sketch=1;curveFitting=1;jiggle=2;" vertex="1" parent="1">
          <mxGeometry x="-670" y="112.5" width="90" height="55" as="geometry" />
        </mxCell>
        <mxCell id="hcVwcxI4KGfbfcKdvUNQ-40" style="edgeStyle=orthogonalEdgeStyle;rounded=0;orthogonalLoop=1;jettySize=auto;html=1;entryX=0;entryY=0.5;entryDx=0;entryDy=0;strokeColor=#FF0000;" edge="1" parent="1" source="hcVwcxI4KGfbfcKdvUNQ-41" target="hcVwcxI4KGfbfcKdvUNQ-6">
          <mxGeometry relative="1" as="geometry">
            <Array as="points">
              <mxPoint x="-232" y="190" />
              <mxPoint x="-700" y="190" />
              <mxPoint x="-700" y="-465" />
            </Array>
          </mxGeometry>
        </mxCell>
        <mxCell id="hcVwcxI4KGfbfcKdvUNQ-41" value="线程被中断" style="rounded=1;whiteSpace=wrap;html=1;fillColor=#e1d5e7;strokeColor=#9673a6;sketch=1;curveFitting=1;jiggle=2;" vertex="1" parent="1">
          <mxGeometry x="-292.5" y="112.5" width="120" height="60" as="geometry" />
        </mxCell>
        <mxCell id="hcVwcxI4KGfbfcKdvUNQ-42" value="&lt;b&gt;&lt;font style=&quot;font-size: 16px;&quot;&gt;for loop&lt;/font&gt;&lt;/b&gt;" style="text;html=1;align=center;verticalAlign=middle;whiteSpace=wrap;rounded=0;" vertex="1" parent="1">
          <mxGeometry x="-710" y="-548" width="141" height="38" as="geometry" />
        </mxCell>
      </root>
    </mxGraphModel>
  </diagram>
</mxfile>
